<?xml version="1.0" encoding="utf-8" ?><svg xmlns="http://www.w3.org/2000/svg" xmlns:xlink="http://www.w3.org/1999/xlink" width="1024" height="1024" viewBox="0 0 1024 1024"><path fill="#D6E8F7" transform="scale(2 2)" d="M228.991 134.395C216.353 133.562 187.194 98.5942 201.03 80.2804C203.174 77.442 205.203 74.7644 208.923 74.2499C219.459 74.3413 205.394 85.5613 204.375 89.1409C201.044 100.515 216.508 117.574 224.281 124.89C225.575 126.113 237.85 129.904 228.991 134.395Z"/><path fill="#D6E8F7" transform="scale(2 2)" d="M238.75 125.133C231.691 114.102 223.128 103.033 228.178 89.0015C230.578 82.3342 234.738 77.3275 241.131 74.2499C252.28 73.9282 240.692 83.3237 239.239 84.7553C229.259 94.5863 235.234 111.049 243.964 119.896C246.422 118.357 247.893 117.244 250.845 116.993L251.275 115.471C255.196 101.995 265.777 92.1865 277.725 85.6253C329.262 57.3236 376.611 98.2609 381.97 150.44C384.012 170.325 382.149 191.844 376.425 210.961C387.41 197.185 399.509 179.288 400.029 161.098C400.145 157.044 396.867 145.297 402.117 144.627C405.849 144.171 410.09 156.183 412.065 159.673C424.817 182.213 451.787 217.415 426.136 241.431C414.829 252.018 403.835 251.902 389.782 251.831C416.053 277.96 408.025 348.344 398.399 379.413C378.967 441.71 338.827 447.449 279.999 424.093C256.926 414.933 240.006 405.72 220.127 391.405C203.971 379.462 190.373 367.666 188.433 346.863C184.83 349.102 181.013 353.792 177.344 356.587C163.227 367.338 149.378 366.84 134.725 357.538C115.906 345.592 108.185 327.226 95.5001 310.07C89.7151 302.246 95.1535 298.31 102.922 305.793C122.343 324.501 159.084 337.794 183.33 321.068C144.591 314.392 105.757 300.905 84.3027 264.972C53.3922 213.202 104.48 153.804 164.004 170.444C174.715 165.47 182.829 164.752 194.595 166.361C190.666 157.851 188.358 145.879 196.56 139.051C184.989 133.64 166.941 120.406 166.549 106.191C166.072 88.9477 180.842 87.4507 174.542 102.148C168.572 116.072 195.88 130.951 205.047 135.933C207.764 137.409 212.636 137.267 215.441 139.636C221.25 143.341 222.066 145.04 226.763 149.762C229.978 137.629 235.296 133.877 238.75 125.133ZM395.433 295.275L395.433 292.216C384.749 289.339 352.895 288.916 343.682 295.719C339.562 298.761 338.731 301.362 333.091 302.773C333.065 304.595 332.963 306.995 333.091 308.766C330.437 325.574 313.252 336.106 298.577 326.194C290.084 337.954 276.031 337.615 265.56 328.664C248.75 339.959 230.755 358.09 219.152 374.626C227.576 381.447 231.44 384.133 240.644 389.881C257.835 365.461 287.216 346.952 313.057 333.148C338.139 319.749 367.866 308.303 396.257 317.052C396.278 309.009 396.253 303.342 395.433 295.275ZM310.594 93.1233C296.382 93.7275 283.589 99.1379 273.745 109.748C270.954 112.755 263.65 121.464 262.882 125.637C263.511 139.527 242.633 155.646 234.616 165.749C260.739 164.4 308.288 182.638 328.232 197.146C328.284 197.197 328.335 197.248 328.387 197.299C338.287 205.159 346.577 214.302 350.972 226.393C351.753 228.544 352.395 233.126 354.58 233.85C358.316 232.708 362.403 216.108 363.344 211.736C371.741 172.738 371.641 120.628 332.117 98.2875C325.679 94.6488 317.968 92.868 310.594 93.1233ZM203.206 145.802C191.241 154.69 215.344 177.319 224.331 180.628C225.181 180.51 225.831 180.514 226.528 180.036C229.764 171.697 215.762 144.556 203.206 145.802ZM236.094 172.901C236.004 189.317 229.294 193.674 214.051 186.232C198.572 215.463 182.318 253.665 192.237 287.843C194 293.919 197.117 301.584 204.12 302.773C217.764 287.331 225.817 283.018 240.644 271.643C236.575 259.764 240.77 249.057 252.358 243.731C258.357 241.684 259.61 242.165 265.56 243.731C265.994 224.879 299.222 217.341 304.997 238.91C311.229 232.168 317.937 233.482 325.486 236.969C334.071 234.846 338.29 233.942 347.276 234.251C332.783 203.986 316.142 194.199 283.844 182.962C272.306 178.947 248.002 172.389 236.094 172.901ZM405.497 172.901C398.552 202.513 379.511 211.823 369.384 232.81C370.76 234.151 371.197 234.517 372.832 235.54C375.078 236.416 377.224 236.016 379.372 234.985C398.826 225.643 410.092 205.284 407.928 183.822C407.646 181.023 407.205 175.148 405.497 172.901ZM141.809 183.036C120.857 182.727 101.136 197.627 95.9462 217.982C94.5338 223.522 92.6665 225.724 92.7398 232.176C93.2348 275.703 145.13 298.951 181.006 306.821C186.453 308.327 190.988 308.842 196.56 309.607L196.413 309.381C194.176 306.002 190.536 302.24 188.86 298.609C172.436 263.025 188.106 222.34 204.6 189.845C205.573 187.929 206.477 186.237 207.268 184.271C203.638 185.371 199.957 186.716 196.274 187.603C175.097 192.706 161.129 182.043 141.809 183.036ZM416.526 187.889C415.894 213.368 403.834 229.623 382.642 241.44C387.197 242.372 388.721 242.436 393.252 242.376C402.429 242.714 411.235 239.442 418.133 233.376C430.488 222.511 425.528 206.811 419.553 193.979C418.906 192.59 417.665 188.775 416.526 187.889ZM285.014 235.54C269.245 238.626 276.44 249.184 279.372 260.234C281.431 259.425 283.017 258.707 285.014 257.746C289.206 257.386 292.134 257.527 296.287 257.746C296.098 251.059 297.751 242.34 293.865 236.969C290.847 235.585 288.417 234.943 285.014 235.54ZM349.553 242.376C344.187 242.611 339.726 243.132 334.462 244.405C336.829 252.196 338.057 256.571 334.462 264.561C344.428 267.85 347.695 276.064 347.276 285.847C356.562 283.914 364.664 282.045 374.2 281.829C381.767 281.672 385.897 282.375 393.252 284.11C388.592 259.362 377.682 240.93 349.553 242.376ZM314.046 243.731C309.588 245.832 304.444 255.624 300.791 260.234C309.649 263.784 308.812 271.396 312.733 268.75C315.489 266.962 318.449 265.348 321.131 263.526C331.157 256.714 325.707 243.902 314.046 243.731ZM259.552 251.831C248.159 253.508 244.072 267.004 252.475 272.038C256.626 274.524 261.878 275.592 266.435 277.432L267.262 277.694C267.884 277.209 268.874 273.398 269.261 272.304C270.719 268.177 273.037 265.664 276.212 262.628C271.805 260.199 263.193 251.353 259.552 251.831ZM289.132 266.714C281.826 267.491 276.551 274.072 277.383 281.372C278.215 288.672 284.835 293.897 292.129 293.01C299.345 292.132 304.503 285.598 303.68 278.375C302.856 271.152 296.361 265.945 289.132 266.714ZM327.192 273.568C322.598 274.491 317.187 275.977 312.733 277.432C312.957 281.164 312.811 283.939 311.865 287.601C317.102 288.995 318.112 289.814 322.943 292.216C339.126 297.84 342.041 273.236 327.192 273.568ZM267.423 281.829C262.649 283.705 250.567 285.237 248.832 289.734C246.65 295.388 249.389 301.708 254.45 304.554C257.335 305.541 258.835 305.588 261.923 305.495C265.196 301.597 268.33 297.426 272.472 294.498C271.209 292.077 268.117 282.629 267.423 281.829ZM240.644 285.847C228.497 290.861 210.477 312.174 203.836 322.663C191.041 342.877 197.564 354.635 213.221 369.637L216.301 365.563C228.27 349.912 242.461 336.33 257.896 324.166C258.954 323.332 260.028 322.489 260.971 321.527C260.261 319.056 259.78 317.625 259.552 315.073C245.094 315.795 236.475 302.774 239.657 289.349C239.804 288.731 240.687 286.081 240.644 285.847ZM306.385 296.344C303.61 298.415 301.749 299.838 298.577 301.311C301.141 310.368 300.68 322.001 314.046 318.815C323.515 315.133 325.042 303.204 318.189 301.486C314.977 300.681 308.937 296.693 306.385 296.344ZM278.716 299.366C271.042 309.177 260.15 321.156 281.909 325.31C294.221 322.821 290.006 311.8 290.188 302.773C286.005 302.287 282.277 301.863 278.716 299.366ZM370.891 321.527C334.302 325.03 292.178 351.122 265.217 374.248C258.545 379.971 251.796 386.418 247.377 393.996C253.178 397.544 265.115 403.494 271.375 406.123L272.472 404.226C298.112 369.547 349.726 336.887 393.252 343.913C393.684 339.55 395.065 329.265 396.257 325.31C386.226 321.678 381.921 321.12 370.891 321.527ZM119.676 327.749C138.681 351.096 156.322 366.32 181.006 337.916C183.679 334.92 186.262 331.152 188.433 327.749C170.367 338.072 147.29 339.365 128.135 331.234C125.376 330.064 122.548 328.555 119.676 327.749ZM378.2 350.256C340.574 353.899 299.161 377.937 278.716 409.434C283.499 411.485 291.332 414.305 296.287 415.772C299.403 417.129 301.715 417.958 304.997 418.87C312.829 400.856 335.236 382.954 352.725 375.887C364.928 370.956 373.995 370.178 386.826 370.255C388.136 366.968 391.27 355.223 391.646 351.668C386.966 350.362 383.047 350.045 378.2 350.256ZM379.387 378.072C353.839 378.516 324.521 397.693 312.733 420.543C315.024 421.151 316.988 421.642 319.325 422.107C355.189 427.529 372.807 409.377 384.669 378.072C383.022 377.895 381.025 377.692 379.387 378.072Z"/><path fill="#D6E8F7" transform="scale(2 2)" d="M167.835 151.301C159.684 150.632 147.117 141.553 143.942 134.081C142.155 129.948 138.344 119.452 144.06 116.993C146.797 116.91 147.445 117.671 148.792 119.896C148.871 123.277 148.63 125.871 149.508 129.056C153.432 143.288 179.765 144.755 167.835 151.301Z"/><path fill="#F1DFB6" transform="scale(2 2)" d="M224.331 180.628C215.344 177.319 191.241 154.69 203.206 145.802C215.762 144.556 229.764 171.697 226.528 180.036C225.831 180.514 225.181 180.51 224.331 180.628Z"/><path fill="#D6E8F7" transform="scale(2 2)" d="M183.33 156.388C179.107 157.204 170.224 152.888 176.987 148.755C181.377 148.67 190.389 151.721 183.33 156.388Z"/><path fill="#F1DFB6" transform="scale(2 2)" d="M279.372 260.234C276.44 249.184 269.245 238.626 285.014 235.54C288.417 234.943 290.847 235.585 293.865 236.969C297.751 242.34 296.098 251.059 296.287 257.746C292.134 257.527 289.206 257.386 285.014 257.746C283.017 258.707 281.431 259.425 279.372 260.234Z"/><path fill="#F1DFB6" transform="scale(2 2)" d="M334.462 244.405C339.726 243.132 344.187 242.611 349.553 242.376C377.682 240.93 388.592 259.362 393.252 284.11C385.897 282.375 381.767 281.672 374.2 281.829C364.664 282.045 356.562 283.914 347.276 285.847C347.695 276.064 344.428 267.85 334.462 264.561C338.057 256.571 336.829 252.196 334.462 244.405ZM358.391 253.841C337.96 256.364 354.964 271.284 370.891 271.643C388.349 268.956 376.527 252.617 358.391 253.841Z"/><path fill="#F1DFB6" transform="scale(2 2)" d="M300.791 260.234C304.444 255.624 309.588 245.832 314.046 243.731C325.707 243.902 331.157 256.714 321.131 263.526C318.449 265.348 315.489 266.962 312.733 268.75C308.812 271.396 309.649 263.784 300.791 260.234Z"/><path fill="#F1DFB6" transform="scale(2 2)" d="M266.435 277.432C261.878 275.592 256.626 274.524 252.475 272.038C244.072 267.004 248.159 253.508 259.552 251.831C263.193 251.353 271.805 260.199 276.212 262.628C273.037 265.664 270.719 268.177 269.261 272.304C268.874 273.398 267.884 277.209 267.262 277.694L266.435 277.432Z"/><path fill="#D6E8F7" transform="scale(2 2)" d="M370.891 271.643C354.964 271.284 337.96 256.364 358.391 253.841C376.527 252.617 388.349 268.956 370.891 271.643Z"/><path fill="#F1DFB6" transform="scale(2 2)" d="M312.733 277.432C317.187 275.977 322.598 274.491 327.192 273.568C342.041 273.236 339.126 297.84 322.943 292.216C318.112 289.814 317.102 288.995 311.865 287.601C312.811 283.939 312.957 281.164 312.733 277.432Z"/><path fill="#F1DFB6" transform="scale(2 2)" d="M254.45 304.554C249.389 301.708 246.65 295.388 248.832 289.734C250.567 285.237 262.649 283.705 267.423 281.829C268.117 282.629 271.209 292.077 272.472 294.498C268.33 297.426 265.196 301.597 261.923 305.495C258.835 305.588 257.335 305.541 254.45 304.554Z"/><path fill="#F1DFB6" transform="scale(2 2)" d="M213.221 369.637C197.564 354.635 191.041 342.877 203.836 322.663C210.477 312.174 228.497 290.861 240.644 285.847C240.687 286.081 239.804 288.731 239.657 289.349C236.475 302.774 245.094 315.795 259.552 315.073C259.78 317.625 260.261 319.056 260.971 321.527C260.028 322.489 258.954 323.332 257.896 324.166C242.461 336.33 228.27 349.912 216.301 365.563L213.221 369.637ZM229.803 308.766C220.138 311.702 207.761 323.47 207.268 334.314C207.864 339.532 211.025 342.101 216.301 341.268C224.114 337.716 242.142 322.87 237.656 313.577C236.26 310.684 233.081 308.599 229.803 308.766Z"/><path fill="#D6E8F7" transform="scale(2 2)" d="M395.433 295.275C380.952 290.957 348.958 299.21 336.486 306.134C335.485 306.689 333.439 307.684 333.091 308.766C332.963 306.995 333.065 304.595 333.091 302.773C338.731 301.362 339.562 298.761 343.682 295.719C352.895 288.916 384.749 289.339 395.433 292.216L395.433 295.275Z"/><path fill="#F1DFB6" transform="scale(2 2)" d="M298.577 301.311C301.749 299.838 303.61 298.415 306.385 296.344C308.937 296.693 314.977 300.681 318.189 301.486C325.042 303.204 323.515 315.133 314.046 318.815C300.68 322.001 301.141 310.368 298.577 301.311Z"/><path fill="#D6E8F7" transform="scale(2 2)" d="M381.703 307.653C369.803 307.396 370.516 297.475 380.441 296.344C391.223 296.603 390.964 306.574 381.703 307.653Z"/><path fill="#F1DFB6" transform="scale(2 2)" d="M281.909 325.31C260.15 321.156 271.042 309.177 278.716 299.366C282.277 301.863 286.005 302.287 290.188 302.773C290.006 311.8 294.221 322.821 281.909 325.31Z"/><path fill="#F1DFB6" transform="scale(2 2)" d="M247.377 393.996C251.796 386.418 258.545 379.971 265.217 374.248C292.178 351.122 334.302 325.03 370.891 321.527C381.921 321.12 386.226 321.678 396.257 325.31C395.065 329.265 393.684 339.55 393.252 343.913C349.726 336.887 298.112 369.547 272.472 404.226L271.375 406.123C265.115 403.494 253.178 397.544 247.377 393.996Z"/><path fill="#D6E8F7" transform="scale(2 2)" d="M269.939 346.863C258.973 345.588 262.945 336.47 272.472 334.314C276.29 334.194 278.268 335.456 279.372 339.02C278.082 344.119 274.991 346.169 269.939 346.863Z"/><path fill="#D6E8F7" transform="scale(2 2)" d="M238.75 379.547C227.04 381.791 230.624 367.652 238.75 365.563C250.065 365.05 246.801 376.118 238.75 379.547Z"/><path fill="#F1DFB6" transform="scale(2 2)" d="M312.733 420.543C324.521 397.693 353.839 378.516 379.387 378.072C381.025 377.692 383.022 377.895 384.669 378.072C372.807 409.377 355.189 427.529 319.325 422.107C316.988 421.642 315.024 421.151 312.733 420.543Z"/></svg>