<?xml version="1.0" encoding="utf-8" ?><svg xmlns="http://www.w3.org/2000/svg" xmlns:xlink="http://www.w3.org/1999/xlink" width="1024" height="1024" viewBox="0 0 1024 1024"><path fill="#D6E8F7" transform="scale(2 2)" d="M231.55 140.865C235.923 127.155 238.724 109.753 255.976 106.321C273.728 104.764 282.707 128.236 285.862 142.241C301.319 150.303 311.186 179.274 313.1 195C313.508 198.354 313.495 201.873 314.184 205.175C323.224 190.649 342.14 175.113 358.38 169.329C362.06 168.018 366.959 170.007 366.219 174.649C363.274 193.122 354.019 211.245 360.201 231.985C368.907 225.429 391.909 213.187 402.492 210.901C395.528 209.002 384.164 212.188 381.859 205.57C379.74 199.485 378.556 193.029 376.107 187.022C373.196 179.644 369.416 173.326 366.235 166.001C349.963 128.538 400.64 98.358 416.41 140.865C431.908 135.413 444.762 144.416 445.743 160.389C474.394 157.395 483.535 197.977 455.05 215.681C445.153 221.832 430.658 217.313 420.241 214.367C414.7 240.345 407.481 258.643 389.103 279.307C386.131 282.648 383.166 284.924 380.136 288.022C382.31 316.337 383.862 345.25 361.206 367.2C339.673 388.063 304.85 389.587 277.782 380.217C246.02 368.961 244.598 364.746 208.696 364.228C188.971 368.105 172.541 371.193 159.87 389.557C155.421 396.435 150.679 407.731 140.245 405.367C112.238 399.02 99.2421 364.002 106.632 338.361C112.463 318.127 123.161 303.493 126.353 281.892C106.332 257.381 98.1625 245.911 93.5504 212.25C76.744 217.299 63.2911 224.042 49.302 209.124C30.598 189.178 40.5711 159.351 66.7122 160.389C66.6214 145.096 81.4223 136.765 95.1276 140.865C102.696 116.572 134.076 113.915 145.05 135.177C155.52 155.463 139.24 183.806 130.956 204.713C128.058 212.027 115.687 208.987 108.49 209.007C109.281 209.435 110.573 210.159 111.39 210.447C129.281 216.753 139.016 223.297 154.637 231.985C154.891 214.428 153.441 200.784 147.659 184.183C145.552 178.135 143.438 172.343 150.886 169.601C174.928 173.046 192.536 191.434 204.931 210.901C203.451 186.762 210.188 154.841 231.55 140.865ZM120.069 130.071C105.796 129.784 105.245 139.926 102.097 150.236C100.432 151.321 98.8937 151.808 96.8733 151.595C82.8449 141.367 74.7034 153.142 74.875 167.379C68.2972 171.496 67.555 168.12 64.2001 169.601C45.8487 169.474 43.4204 191.886 56.6015 204.233C62.3866 209.652 63.8357 208.839 71.3196 209.007C84.7598 205.026 102.295 199.396 115.742 200.235C118.205 200.323 120.57 200.275 123.03 200.235C127.306 189.939 137.923 166.694 139.592 157.831C141.838 145.904 138.115 132.41 124.599 130.071L124.358 130.028C122.884 129.754 121.534 129.667 120.069 130.071ZM399.04 131.781C383.493 121.713 368.464 140.804 372.437 156.886C374.664 165.898 383.588 182.247 387.601 192.518C387.994 195.997 388.717 198.308 389.71 201.651C397.503 201.169 404.392 202.85 411.108 202.496C418.155 205.762 432.919 208.664 440.475 209.94C458.218 212.935 474.427 181.653 455.163 170.931C446.964 165.849 434.158 174.269 436.781 162.651C439.786 151.361 427.369 141.992 414.928 152.56C403.134 153.78 411.956 133.838 399.04 131.781ZM285.862 159.676L285.618 160.111C280.422 169.491 267.68 201.433 259.799 203.967C251.279 206.707 234.968 170.274 232.34 159.676C231.751 156.962 231.459 155.344 231.55 152.56C215.992 166.289 210.902 195.856 214.016 215.635C216.494 214.629 216.931 214.198 219.371 215.635C221.007 218.299 220.673 218.82 219.371 221.577C217.914 222.58 216.82 223.103 215.135 223.688C216.169 229.108 216.672 232.118 222.195 234.355C245.395 238.575 271.67 239.437 294.801 234.355C296.662 233.97 298.191 233.532 300.02 233.001C312.257 210.548 302.09 173.435 287.013 154.492C286.501 156.233 286.207 157.898 285.862 159.676ZM155.337 179.662L156.826 183.939C159.364 192.952 170.701 240.714 157.62 243.773C152.753 242.62 147.421 237.534 142.998 235.017C134.472 230.164 119.753 222.219 110.472 219.775C108.575 218.895 106.194 218.002 104.161 217.517C101.936 231.018 116.959 256.288 124.599 266.416C128.647 261.881 135.807 260.488 135.506 267.215C135.354 270.604 132.504 271.283 130.154 272.77C134.928 279.054 140.127 281.736 147.733 280.583C163.75 276.093 194.915 254.765 204.931 241.514C206.29 239.646 207.146 238.536 208.696 236.841C199.474 214.897 180.379 185.245 155.337 179.662ZM352.408 191.172C353.71 188.565 355.52 182.57 356.013 179.662C335.322 190.952 324.301 202.84 312.299 223.688C318.087 225.75 319.451 230.748 313.206 232.976L313.136 233.001L309.776 231.985C308.146 235.537 307.288 237.153 304.784 240.139C309.972 248.2 312.533 250.932 319.912 256.712C326.02 263.592 351.112 280.006 360.201 282.982C364.659 284.842 368.97 285.383 372.979 282.213C392.784 266.549 406.656 240.181 411.108 215.635C407.484 217.472 403.727 218.734 400.009 220.384C387.798 225.808 376.085 231.495 365.034 239.128C361.973 241.243 355.998 247.123 352.541 242.458C347.757 235.999 350.493 202.561 352.408 191.172ZM257.416 115.088C244.522 116.847 238.19 143.331 240.25 153.964C242.672 166.469 250.341 182.988 258.67 192.518L260.066 191.172C266.407 177.857 276.715 165.28 278.851 150.338C279.944 142.689 267.948 113.566 257.416 115.088ZM215.896 241.514C202.269 260.027 167.61 286.81 146.759 290.056C142.417 290.732 138.371 289.786 134.405 288.022C131.925 294.302 130.857 301.207 128.128 307.719C120.835 325.121 110.663 342.268 113.841 361.911C116.34 377.356 126.086 393.023 142.039 397.132C145.353 396.236 147.083 394.473 148.624 391.394C166.457 355.777 214.089 350.207 248.692 359.764C259.945 363.015 269.881 367.805 280.602 371.638C315.515 384.12 359.039 376.181 369.936 335.62C373.018 324.151 374.492 304.135 371.75 292.597C351.04 297.904 304.875 259.02 296.277 242.911C277.362 247.197 248.76 246.974 229.971 244.616C225.067 244 219.637 241.874 215.896 241.514Z"/><path fill="#D4AF37" transform="scale(2 2)" d="M120.069 130.071C121.534 129.667 122.884 129.754 124.358 130.028L124.599 130.071C130.615 140.403 134.384 146.86 130.704 159.823C126.842 173.429 119.34 186.528 115.742 200.235C102.295 199.396 84.7598 205.026 71.3196 209.007C69.9878 207.609 67.7435 206.083 66.2239 204.814C53.1719 193.919 55.8195 181.698 64.2001 169.601C67.555 168.12 68.2972 171.496 74.875 167.379C81.009 170.725 82.9066 160.559 86.0613 157.718C89.8523 154.304 92.3852 153.301 96.8733 151.595C98.8937 151.808 100.432 151.321 102.097 150.236C107.978 149.719 108.209 136.055 120.278 130.278L120.069 130.071Z"/><path fill="#CA8201" transform="scale(2 2)" d="M124.599 130.071C138.115 132.41 141.838 145.904 139.592 157.831C137.923 166.694 127.306 189.939 123.03 200.235C120.57 200.275 118.205 200.323 115.742 200.235C119.34 186.528 126.842 173.429 130.704 159.823C134.384 146.86 130.615 140.403 124.599 130.071Z"/><path fill="#D4AF37" transform="scale(2 2)" d="M399.04 131.781C411.956 133.838 403.134 153.78 414.928 152.56C424.221 156.412 427.075 153.293 436.781 162.651C434.158 174.269 446.964 165.849 455.163 170.931C455.496 173.048 456.616 174.861 456.973 176.946C459.019 188.897 447.642 207.046 432.938 204.092C430.048 203.511 413.756 201.386 411.108 202.496C404.392 202.85 397.503 201.169 389.71 201.651C388.717 198.308 387.994 195.997 387.601 192.518C391.164 180.896 371.66 155.449 382.455 140.853C389.928 130.796 390.705 133.777 399.04 131.781Z"/><path fill="#CA8201" transform="scale(2 2)" d="M285.862 159.676C286.207 157.898 286.501 156.233 287.013 154.492C302.09 173.435 312.257 210.548 300.02 233.001C298.191 233.532 296.662 233.97 294.801 234.355C300.867 216.98 299.097 175.097 285.862 159.676Z"/><path fill="#D4AF37" transform="scale(2 2)" d="M232.34 159.676C234.968 170.274 251.279 206.707 259.799 203.967C267.68 201.433 280.422 169.491 285.618 160.111L285.862 159.676C299.097 175.097 300.867 216.98 294.801 234.355C271.67 239.437 245.395 238.575 222.195 234.355C221.386 231.497 220.136 223.284 219.371 221.577C220.673 218.82 221.007 218.299 219.371 215.635C220.439 195.131 218.679 178.306 232.34 159.676ZM280.463 209.007C264.889 212.585 266.194 225.562 280.463 223.688C294.29 220.982 295.87 209.737 280.463 209.007ZM235.912 210.901C221.813 213.364 229.705 227.058 243.152 225.534C246.543 224.7 249.209 223.487 250.063 219.775C248.485 212.076 242.698 211.117 235.912 210.901Z"/><path fill="#CA8201" transform="scale(2 2)" d="M455.163 170.931C474.427 181.653 458.218 212.935 440.475 209.94C432.919 208.664 418.155 205.762 411.108 202.496C413.756 201.386 430.048 203.511 432.938 204.092C447.642 207.046 459.019 188.897 456.973 176.946C456.616 174.861 455.496 173.048 455.163 170.931Z"/><path fill="#CA8201" transform="scale(2 2)" d="M156.826 183.939L155.337 179.662C180.379 185.245 199.474 214.897 208.696 236.841C207.146 238.536 206.29 239.646 204.931 241.514C194.429 223.896 177.579 197.459 160.816 185.67C159.887 185.017 158.222 183.75 157.161 183.593L156.826 183.939Z"/><path fill="#D4AF37" transform="scale(2 2)" d="M156.826 183.939L157.161 183.593C158.222 183.75 159.887 185.017 160.816 185.67C177.579 197.459 194.429 223.896 204.931 241.514C194.915 254.765 163.75 276.093 147.733 280.583C144.861 275.939 139.841 271.174 136.605 266.416C150.956 271.817 163.316 251.855 149.485 252.047C143.322 252.132 134.541 256.309 134.405 263.29C130.527 261.295 113.092 225.498 110.472 219.775C119.753 222.219 134.472 230.164 142.998 235.017C147.421 237.534 152.753 242.62 157.62 243.773C170.701 240.714 159.364 192.952 156.826 183.939ZM186.547 228.82C174.37 230.996 167.894 247.279 179.967 247.269C191.956 244.59 198.363 229.068 186.547 228.82Z"/><path fill="#D4AF37" transform="scale(2 2)" d="M319.912 256.712C318.605 248.25 316.167 243.661 319.174 234.384C323.938 219.683 339.033 198.433 352.408 191.172C350.493 202.561 347.757 235.999 352.541 242.458C355.998 247.123 361.973 241.243 365.034 239.128C376.085 231.495 387.798 225.808 400.009 220.384C400.151 231.039 388.071 260.502 379.262 266.416C378.657 266.304 378.779 266.347 378.139 266.416C380.465 255.357 360.951 249.976 358.773 260.756C357.258 268.251 369.882 272.052 376.709 269.669L376.709 269.669C371.998 277.487 367.138 279.025 360.201 282.982C351.112 280.006 326.02 263.592 319.912 256.712ZM326.116 237.78C315.173 240.606 327.343 256.675 338.15 254.524C348.657 250.551 337.096 236.126 326.116 237.78Z"/><path fill="#D6E8F7" transform="scale(2 2)" d="M280.463 223.688C266.194 225.562 264.889 212.585 280.463 209.007C295.87 209.737 294.29 220.982 280.463 223.688Z"/><path fill="#D6E8F7" transform="scale(2 2)" d="M243.152 225.534C229.705 227.058 221.813 213.364 235.912 210.901C242.698 211.117 248.485 212.076 250.063 219.775C249.209 223.487 246.543 224.7 243.152 225.534Z"/><path fill="#CA8201" transform="scale(2 2)" d="M400.009 220.384C403.727 218.734 407.484 217.472 411.108 215.635C406.656 240.181 392.784 266.549 372.979 282.213C368.97 285.383 364.659 284.842 360.201 282.982C367.138 279.025 371.998 277.487 376.709 269.669L379.262 266.416C388.071 260.502 400.151 231.039 400.009 220.384Z"/><path fill="#D6E8F7" transform="scale(2 2)" d="M179.967 247.269C167.894 247.279 174.37 230.996 186.547 228.82C198.363 229.068 191.956 244.59 179.967 247.269Z"/><path fill="#D6E8F7" transform="scale(2 2)" d="M338.15 254.524C327.343 256.675 315.173 240.606 326.116 237.78C337.096 236.126 348.657 250.551 338.15 254.524Z"/><path fill="#D6E8F7" transform="scale(2 2)" d="M134.405 263.29C134.541 256.309 143.322 252.132 149.485 252.047C163.316 251.855 150.956 271.817 136.605 266.416C135.606 265.353 135.153 264.518 134.405 263.29Z"/><path fill="#D6E8F7" transform="scale(2 2)" d="M376.709 269.669C369.882 272.052 357.258 268.251 358.773 260.756C360.951 249.976 380.465 255.357 378.139 266.416C377.742 267.321 377.152 268.931 376.709 269.669Z"/><path fill="#CB962E" transform="scale(2 2)" d="M378.139 266.416C378.779 266.347 378.657 266.304 379.262 266.416L376.709 269.669L376.709 269.669C377.152 268.931 377.742 267.321 378.139 266.416Z"/></svg>