<?xml version="1.0" encoding="utf-8" ?><svg xmlns="http://www.w3.org/2000/svg" xmlns:xlink="http://www.w3.org/1999/xlink" width="1024" height="1024" viewBox="0 0 1024 1024"><path fill="#D6E8F7" transform="scale(2 2)" d="M303.994 123.381C295.113 103.15 305.792 86.8476 326.956 84.3334C345.613 82.1994 366.58 98.4839 360.907 118.508C359.801 122.411 357.967 125.276 355.8 128.755C364.027 130.259 395.582 132.533 399.777 139.028C404.022 145.6 400.85 170.263 399.297 178.33C407.713 176.18 413.307 175.134 421.646 178.748C460.97 195.788 426.732 253.42 399.369 234.84C396.06 232.598 393.462 230.512 389.781 228.82C388.644 239.183 392.649 244.199 387.916 255.407C392.322 259.271 393.246 264.63 394.602 270.076C401.989 299.741 405.866 331.383 401.528 361.828C399.518 375.936 397.045 375 383.867 378.351C376.025 380.185 368.12 381.311 360.204 382.475C380.292 424.799 322.779 441.748 306.989 412.688C302.868 405.103 301.607 398.74 303.994 390.446C294.962 389.867 268.484 392.815 262.513 385.795C231.717 396.867 197.916 400.287 165.322 400.249C162.03 400.001 140.963 398.677 139.622 396.491C132.663 385.142 127.326 368.574 126.743 355.267C124.453 356.729 122.127 358.294 119.679 359.446C83.9334 376.113 65.1722 317.627 99.2607 301.96C107.347 298.244 114.967 299.862 122.93 302.948C120.192 290.417 119.787 278.28 122.93 265.799C121.597 265.547 120.104 265.17 118.766 264.861C120.295 253.943 117.643 233.66 117.767 221.636C89.1519 238.03 63.8451 211.805 75.6441 182.968C82.4627 166.303 101.196 163.566 116.179 170.388C116.33 157.673 114.846 145.281 115.248 132.034C132.075 118.714 181.177 112.365 201.858 111.767C211.912 111.477 244.016 112.424 250.814 119.119C254.619 122.867 252.74 143.041 252.75 149.602C255.018 142.95 259.218 130.258 262.513 124.124C266.461 124.333 274.155 123.455 278.62 123.394C287.046 123.278 295.632 123.553 303.994 123.381ZM240.561 126.362C212.873 119.771 168.176 125.376 140.941 130.692C136.379 131.582 124.706 133.675 120.754 135.363C120.684 139.672 121.753 143.843 122.486 148.126L125.288 164.906C128.552 184.7 122.071 183.18 108.241 179.312C89.2511 171.672 76.5378 194.99 87.8657 209.549C106.114 232.171 140.06 172.098 124.424 261.436C137.876 261.308 152.007 260.123 165.322 260.506L165.116 260.194C163.527 257.809 161.424 255.796 159.854 253.502C146.262 233.642 163.464 217.914 182.042 212.553C197.827 211.985 213.526 215.792 216.861 234.271C218.772 242.743 216.648 247.49 211.706 254.067C224.632 254.002 233.357 251.223 245.458 249.331C245.026 244.021 245.077 238.991 244.399 233.53C244.607 224.324 243.762 214.109 243.77 204.472C250.941 194.553 254.338 200.917 260.891 204.472C283.522 217.41 298.769 172.923 273.69 169.45C262.95 161.152 255.449 182.488 242.229 169.45L242.237 140.503C242.235 138.448 242.438 127.622 241.645 126.503L240.561 126.362ZM378.11 143.341C372.529 142.281 367.027 141.379 361.385 140.618C353.997 139.62 341.11 139.777 342.891 128.738C343.403 125.566 346.776 122.794 348.406 120.138C361.536 97.6981 318.118 84.0174 311.98 107.58C310.179 114.492 324.139 135.895 303.289 133.513C290.475 132.298 277.472 131.352 264.859 128.755C262.674 138.33 260.361 149.498 257.541 158.835C301.025 146.218 312.397 205.49 275.454 216.152C267.996 218.304 261.308 216.82 254.759 213.46C254.716 218.53 255.303 248.316 258.255 250.546C267.666 257.654 286.435 258.825 297.745 258.774C282.722 239.33 301.85 210.471 326.617 214.38C337.388 216.08 346.1 223.439 349.959 233.53C352.66 239.926 351.968 247.561 349.959 254.067C336.566 263.059 372.424 252.741 373.465 252.438C377.7 251.202 378.637 249.92 379.135 245.455C378.85 239.984 378.015 226.167 381.907 222.06C388.774 214.812 397.064 219.282 403.261 224.585C405.11 225.64 406.99 226.774 408.94 227.614C426.75 226.662 437.394 198.379 417.387 189.062C409.628 184.554 382.801 199.155 388.894 173.948C391.091 164.86 390.867 155.385 390.799 146.104C386.532 145.018 382.438 144.121 378.11 143.341ZM336.222 232.219C323.047 213.45 291.621 235.934 307.435 254.067C308.751 255.33 310.55 256.805 310.473 258.774C310.668 268.211 307.241 270.235 298.417 270.296C284.909 270.39 251.456 268.454 246.568 252.465C245.361 252.997 244.409 253.407 243.253 254.067C250.599 261.091 255.886 269.778 259.392 279.293C262.028 286.092 268.522 305.987 255.771 306.534C254.077 306.606 249.744 304.959 247.844 304.374C228.192 298.323 214.843 326.389 231.821 338.234L232.067 338.435C247.292 350.579 255.682 331.211 265.833 338.82C271.975 343.424 271.666 367.529 271.279 375.918C273.2 383.525 303.324 378.529 310.473 377.765C323.671 382.786 311.303 391.455 314.208 399.505C314.489 425.964 364.23 418.113 351.74 390.369C350.558 387.742 349.729 386.341 347.234 384.812C343.027 381.403 343.076 378.365 345.945 374.041C358.395 370.074 375.767 369.508 389.569 365.578C389.544 364.725 389.698 363.555 389.781 362.676C389.799 361.807 389.786 360.929 389.781 360.059C397.057 338.373 388.508 288.025 382.773 267.17C381.339 261.956 380.471 261.656 375.686 263.378L359.938 266.831C356.278 267.615 350.061 269.522 346.639 268.97C335.344 267.15 333.077 257.003 339.004 248.482C342.011 244.159 339.93 235.951 336.222 232.219ZM252.75 351.886C247.818 353.787 245.046 353.778 239.769 353.742C192.64 344.03 214.198 278.874 254.759 294.888C253.788 282.473 248.261 265.187 240.561 255.407C232.044 256.424 210.423 268.26 204.006 259.733C199.829 254.182 205.483 247.937 206.301 242.401C209.845 218.411 169.524 217.538 166.915 238.905C165.577 249.869 184.044 257.655 171.5 266.543C165.148 271.044 135.307 267.992 126.743 266.645C126.322 277.747 127.459 289.64 130.909 300.446C133.556 308.737 129.734 315.978 119.878 314.046C117.738 313.627 115.255 311.977 112.926 311.494C97.5929 308.316 89.3819 326.685 93.4879 339.203C96.801 350.213 108.632 354.411 117.945 347.391C122.511 343.949 126.46 339.935 132.603 343.392C138.719 346.833 137.572 356.609 138.868 362.547C140.567 370.956 142.721 379.192 145.093 387.417C179.635 393.299 228.464 385.211 260.891 374.85C260.353 367.501 260.528 355.367 259.415 348.722C256.854 350.128 255.482 350.87 252.75 351.886Z"/><path fill="#CB962E" transform="scale(2 2)" d="M240.561 126.362L241.645 126.503C242.438 127.622 242.235 138.448 242.237 140.503L242.229 169.45C255.449 182.488 262.95 161.152 273.69 169.45C282.063 178.125 281.359 189.605 272.876 197.99C268.604 202.213 265.774 202.108 260.891 204.472C254.338 200.917 250.941 194.553 243.77 204.472C243.762 214.109 244.607 224.324 244.399 233.53C234.328 234.789 226.38 233.824 216.861 234.271C213.526 215.792 197.827 211.985 182.042 212.553C170.908 197.275 157.919 155.56 174.022 142.301C188.521 130.362 238.439 128.46 240.561 126.362Z"/><path fill="#CB962E" transform="scale(2 2)" d="M378.11 143.341C382.438 144.121 386.532 145.018 390.799 146.104C390.867 155.385 391.091 164.86 388.894 173.948C382.801 199.155 409.628 184.554 417.387 189.062C425.404 203.221 418.87 220.404 403.261 224.585C397.064 219.282 388.774 214.812 381.907 222.06C378.015 226.167 378.85 239.984 379.135 245.455C369.357 249.693 358.612 250.185 349.959 254.067C351.968 247.561 352.66 239.926 349.959 233.53C374.69 214.447 383.514 173.491 378.11 143.341Z"/><path fill="#CB962E" transform="scale(2 2)" d="M336.222 232.219C339.93 235.951 342.011 244.159 339.004 248.482C333.077 257.003 335.344 267.15 346.639 268.97C350.061 269.522 356.278 267.615 359.938 266.831L375.686 263.378C376.227 269.16 378.206 275.065 379.38 280.83C383.293 300.053 386.822 319.503 388.299 339.083C388.654 343.785 388.818 355.901 389.781 360.059C389.786 360.929 389.799 361.807 389.781 362.676C388.724 362.179 349.583 366.808 345.945 374.041C343.076 378.365 343.027 381.403 347.234 384.812C349.96 396.752 346.164 408.786 332.713 412.307C317.284 416.345 317.571 402.539 314.208 399.505C311.303 391.455 323.671 382.786 310.473 377.765C307.68 376.039 276.491 375.837 271.279 375.918C271.666 367.529 271.975 343.424 265.833 338.82C255.682 331.211 247.292 350.579 232.067 338.435L231.821 338.234C228.932 331.946 228.434 325.53 231.815 319.244C239.417 305.112 254.396 310.513 267.033 311.534C276.143 312.177 282.973 311.217 291.927 308.793C316.394 302.169 339.569 273.793 310.473 258.774C310.55 256.805 308.751 255.33 307.435 254.067C309.366 249.239 308.789 245.613 312.49 240.665C320.126 229.895 327.809 233.83 336.222 232.219Z"/><path fill="#CB962E" transform="scale(2 2)" d="M239.769 353.742C245.046 353.778 247.818 353.787 252.75 351.886C254.468 356.066 255.736 367.517 255.762 372.139C251.293 374.308 242.878 376.106 237.758 377.176C215.637 381.799 171.553 390.101 156.626 366.177C160.228 365.411 165.412 365.577 169.272 365.136C181.584 363.73 230.628 359.039 239.769 353.742Z"/></svg>