<?xml version="1.0" encoding="utf-8" ?><svg xmlns="http://www.w3.org/2000/svg" xmlns:xlink="http://www.w3.org/1999/xlink" width="1024" height="1024" viewBox="0 0 1024 1024"><path fill="#EF601E" transform="scale(2 2)" d="M104.946 404.832C94.3129 403.632 79.4767 402.455 77.4466 389.178C76.6921 384.248 78.7331 379.645 81.6694 375.796C111.121 337.19 143.763 299.712 184.703 272.916C187.499 271.086 189.48 266.614 190.666 263.498C200.646 237.273 195.279 207.492 187.241 181.49C183.404 169.242 179.019 159.939 180.307 146.813C181.254 137.17 186.088 129.742 187.341 120.942C189.8 103.679 176.31 79.7834 187.201 65.0608C194.724 54.8232 209.025 49.5421 221.099 47.592C225.498 46.7137 227.519 50.3533 228.395 53.9058C226.741 59.2193 225.073 58.0063 223.019 61.0563C213.567 75.0887 216.35 110.558 231.059 120.952C242.833 129.272 244.5 125.233 256.607 140.087C266.633 123.789 282.139 127.231 289.269 112.54C296.32 98.0137 296.494 77.9354 290.029 63.0779C288.242 58.9705 284.287 59.3286 282.695 54.2685L282.583 53.9058C285.168 41.3563 304.251 50.8708 311.601 54.6603C341.95 70.3054 322.894 93.5185 325.174 119.903C326.395 134.046 333.904 140.331 331.909 156.154C330.649 166.145 326.664 175.704 323.627 185.254C317.155 205.607 313.552 229.01 317.102 250.259C320.591 271.138 325.101 271.576 340.373 282.599C372.5 305.789 402.055 338.922 425.676 370.463C430.517 376.928 437.689 383.197 433.138 391.664C427.6 401.97 418.392 402.056 409.174 404.832C406.794 405.911 399.987 426.177 382.298 431.584C375.145 433.77 369.326 433.252 362.009 433.372L360.496 432.871C359.34 433.317 352.948 440.781 351.155 442.465C339.12 453.758 327.348 454.096 311.724 449.139C292.362 463.66 280.084 468.476 256.607 454.549C232.392 466.017 221.668 466.984 200.967 449.139C176.484 457.024 165.511 450.508 150.518 432.319C129.863 436.11 110.051 426.755 104.946 404.832ZM314.893 131.189C314.566 128.571 313.822 124.674 313.622 122.286C299.543 126.311 273.196 133.403 265.702 147.361C264.012 150.629 263.186 154.295 259.153 155.429C250.189 157.948 248.97 148.462 244.405 143.405C234.039 131.922 213.439 126.804 199.08 123.23C198.42 126.191 197.878 128.276 196.905 131.189C187.881 152.579 192.176 158.603 198.947 179.437C204.889 197.721 211.27 230.803 206 250.178C234.707 261.969 262.853 265.784 293.01 255.675C296.945 254.356 301.312 251.935 305.185 250.178C301.252 231.53 307.33 198.95 312.782 181.477C320.184 156.464 324.765 155.593 314.893 131.189ZM98.8219 373.201C87.453 386.996 81.6935 391.965 107.053 392.886C109.313 389.674 112.097 386.811 114.148 383.914C131.654 362.54 154.951 330.209 177.388 314.738C157.747 338.902 140.107 364.508 123.045 390.546C120.301 393.828 118.36 396.941 115.334 400.388C120.885 417.405 131.534 423.87 149.327 421.501C151.015 416.454 154.344 410.021 155.661 405.507C163.278 388.543 176.088 358.56 188.175 344.237C180.72 364.648 172.762 386.59 166.182 407.252C164.186 413.347 161.964 419.5 160.007 425.51C175.416 446.265 177.552 440.169 197.943 438.601C199.867 431.777 202.357 423.892 203.925 417.084C211.054 392.163 214.593 371.259 227.016 347.093C225.95 354.027 223.867 360.851 222.681 367.804C219.634 385.665 217.258 403.766 213.569 421.501C212.213 427.656 210.381 434.627 209.198 440.657C223.917 455.346 232.665 453.619 250.51 444.431C250.378 437.462 251.174 431.316 251.496 424.446C254.685 401.987 253.275 378.583 259.737 355.966C261.797 377.989 262.173 402.258 261.623 424.446C261.343 429.17 261.166 439.857 261.623 444.431C283.343 455.503 287.035 453.105 304.249 440.657C302.437 435.682 300.688 428.171 299.244 422.812C293.323 399.077 289.314 374.723 286.132 350.497C295.817 373.782 301.364 397.581 309.743 420.799C310.735 424.343 314.418 435.681 315.79 438.601C332.844 444.852 341.659 438.041 351.962 424.446C350.755 420.451 345.081 407.268 342.954 403.715C338.538 386.965 324.397 370.198 317.86 354.235C331.104 369.875 339.739 379.998 350.824 398.21C351.821 399.856 353.114 402.237 354.255 403.715C356.162 408.553 360.784 415.658 363.25 421.501C382.806 423.587 389.657 416.113 398.677 398.952C395.016 395.406 389.917 388.826 386.609 386.094C377.882 371.545 359.316 351.464 348.154 338.149C344.456 333.739 340.109 329.292 336.685 324.719C351.374 332.068 385.215 367.009 396.125 378.984C398.135 381.19 400.417 384.308 402.688 386.094C403.879 387.895 407.594 391.837 409.174 393.419C414.821 392.26 418.726 390.18 422.843 386.094C420.662 383 418.216 379.825 415.81 376.899C412.69 371.774 405.969 364.13 402.089 359.442C380.83 333.764 357.588 308.897 330.277 289.565C326.569 286.941 320.997 283.718 317.86 280.677C314.448 280.77 311.509 280.885 308.098 280.677C315.156 289.965 322.86 296.207 327.902 307.483C332.891 318.638 337.73 331.261 334.143 343.666C333.095 347.29 329.167 350.771 325.354 348.992C320.949 347.057 320.801 341.043 317.934 337.955C315.757 335.611 311.118 334.07 308.612 331.925C297.448 324.381 293.036 314.755 288.095 302.737C283.551 322.326 272.473 347.744 251.189 353.37C244.826 355.051 227.406 354.731 234.224 344.879C236.214 342.004 239.072 343.083 241.825 342.212C244.277 341.436 244.712 325.779 245.242 322.821C247.328 311.193 254.692 300.856 260.758 290.953C235.738 298.198 215.092 293.559 193.632 280.677C185.366 286.955 176.834 292.377 168.773 299.103C149.351 315.309 112.181 351.465 98.8219 373.201ZM209.198 63.4259C190.184 69.0322 194.762 80.0676 196.684 94.6054C197.4 100.018 198.38 105.791 199.08 111.543C200.13 111.678 201.502 111.809 202.495 112.081C205.358 112.71 208.836 113.399 211.6 114.265C205.934 98.5074 203.417 81.0848 209.08 64.8764C209.263 64.3544 209.62 63.7641 209.198 63.4259ZM302.91 63.4259C307.761 83.9048 307.843 94.0176 301.255 114.265C304.411 113.112 307.46 112.057 310.802 111.543C311.84 111.328 312.377 111.397 313.076 110.759C314.648 101.407 315.557 91.6183 317.301 82.2875C319.093 72.7082 311.097 66.3774 302.91 63.4259ZM203.925 261.5C202.715 264.794 201.443 267.849 200.084 271.086C213.864 284.88 248.374 283.987 265.313 276.849C268.65 275.307 271.281 273.933 274.418 271.924C251.7 274.157 224.53 272.692 203.925 261.5ZM308.098 261.5C303.116 264.621 299.187 265.486 294.68 268.301C295.443 268.301 298.678 268.227 299.244 268.301C303.428 268.896 306.517 269.256 310.802 269.343C309.812 266.947 309.216 263.625 308.098 261.5ZM281.675 279.724C271.536 293.246 256.198 316.984 255.747 332.973C255.712 334.178 254.879 338.191 255.543 338.796C270.684 328.922 277.003 300.362 281.382 283.719C281.565 283.024 282.112 280.217 281.675 279.724ZM292.041 282.256C298.183 299.16 305.101 319.998 322.762 327.105C320.36 313.478 303.688 288.92 292.041 282.256Z"/><path fill="#FDF3DD" transform="scale(2 2)" d="M314.893 131.189C313.232 134.457 312.393 138.233 310.648 141.59C295.504 170.717 251.003 176.574 223.821 163.318C212.505 157.923 206.717 150.547 200.869 139.608C199.763 137.539 198.007 132.628 196.905 131.189C197.878 128.276 198.42 126.191 199.08 123.23C213.439 126.804 234.039 131.922 244.405 143.405C248.97 148.462 250.189 157.948 259.153 155.429C263.186 154.295 264.012 150.629 265.702 147.361C273.196 133.403 299.543 126.311 313.622 122.286C313.822 124.674 314.566 128.571 314.893 131.189Z"/><path fill="#FDF3DD" transform="scale(2 2)" d="M200.084 271.086C201.443 267.849 202.715 264.794 203.925 261.5C224.53 272.692 251.7 274.157 274.418 271.924C271.281 273.933 268.65 275.307 265.313 276.849C248.374 283.987 213.864 284.88 200.084 271.086Z"/><path fill="#FDF3DD" transform="scale(2 2)" d="M294.68 268.301C299.187 265.486 303.116 264.621 308.098 261.5C309.216 263.625 309.812 266.947 310.802 269.343C306.517 269.256 303.428 268.896 299.244 268.301C298.678 268.227 295.443 268.301 294.68 268.301Z"/><path fill="#FDF3DD" transform="scale(2 2)" d="M255.543 338.796C254.879 338.191 255.712 334.178 255.747 332.973C256.198 316.984 271.536 293.246 281.675 279.724C282.112 280.217 281.565 283.024 281.382 283.719C277.003 300.362 270.684 328.922 255.543 338.796Z"/><path fill="#FDF3DD" transform="scale(2 2)" d="M322.762 327.105C305.101 319.998 298.183 299.16 292.041 282.256C303.688 288.92 320.36 313.478 322.762 327.105Z"/><path fill="#FDF3DD" transform="scale(2 2)" d="M107.053 392.886C81.6935 391.965 87.453 386.996 98.8219 373.201C104.208 379.855 105.386 381.959 114.148 383.914C112.097 386.811 109.313 389.674 107.053 392.886Z"/><path fill="#EF601E" transform="scale(2 2)" d="M415.81 376.899C418.216 379.825 420.662 383 422.843 386.094C418.726 390.18 414.821 392.26 409.174 393.419C407.594 391.837 403.879 387.895 402.688 386.094C409.086 384.822 412.238 382.115 415.81 376.899Z"/><path fill="#FDF3DD" transform="scale(2 2)" d="M386.609 386.094C389.917 388.826 395.016 395.406 398.677 398.952C389.657 416.113 382.806 423.587 363.25 421.501C360.784 415.658 356.162 408.553 354.255 403.715C372.568 405.825 377.95 400.042 386.609 386.094Z"/><path fill="#FDF3DD" transform="scale(2 2)" d="M115.334 400.388C118.36 396.941 120.301 393.828 123.045 390.546C132.326 402.078 141.486 405.624 155.661 405.507C154.344 410.021 151.015 416.454 149.327 421.501C131.534 423.87 120.885 417.405 115.334 400.388Z"/><path fill="#FDF3DD" transform="scale(2 2)" d="M309.743 420.799L310.5 420.971C328.013 425.03 335.17 416.99 342.797 403.976L342.954 403.715C345.081 407.268 350.755 420.451 351.962 424.446C341.659 438.041 332.844 444.852 315.79 438.601C314.418 435.681 310.735 424.343 309.743 420.799Z"/><path fill="#FDF3DD" transform="scale(2 2)" d="M160.007 425.51C161.964 419.5 164.186 413.347 166.182 407.252C181.511 420.868 186.349 419.257 203.925 417.084C202.357 423.892 199.867 431.777 197.943 438.601C177.552 440.169 175.416 446.265 160.007 425.51Z"/><path fill="#FDF3DD" transform="scale(2 2)" d="M209.198 440.657C210.381 434.627 212.213 427.656 213.569 421.501C223.674 433.029 239.699 432.703 251.496 424.446C251.174 431.316 250.378 437.462 250.51 444.431C232.665 453.619 223.917 455.346 209.198 440.657Z"/><path fill="#FDF3DD" transform="scale(2 2)" d="M261.623 424.446C271.577 431.48 281.208 432.902 292.652 426.825C294.884 425.64 296.933 423.822 299.244 422.812C300.688 428.171 302.437 435.682 304.249 440.657C287.035 453.105 283.343 455.503 261.623 444.431C261.166 439.857 261.343 429.17 261.623 424.446Z"/></svg>