<svg xmlns="http://www.w3.org/2000/svg" xmlns:xlink="http://www.w3.org/1999/xlink" preserveAspectRatio="xMidYMid meet" version="1.0" viewBox="-0.6 0.0 427.7 408.5" zoomAndPan="magnify" style="fill: rgb(0, 0, 0);" original_string_length="17557" width="111.45672660803407px" height="106.59316035604712px"><g id="__id8_swebcn14bf"><path d="M121.2852,54.6201c-0.4761,0.4141-0.7021,0.6108-1.0708,0.9316 C120.458,55.3247,120.8047,55.019,121.2852,54.6201z M57.2803,114.0596l-0.4404,0.79l0.7222-1.1035l0.3218-0.7231L57.2803,114.0596z M288.917,3.9829l-5.1387-1.3315l2.4014,0.6831L288.917,3.9829z M2.1831,405.7319l-0.188-0.168l-0.8823-0.0615L2.1831,405.7319z M426.4883,291.436l-0.0146,1.4941l0.0566,0.8652L426.4883,291.436z M137.0737,102.6074c0.3193-0.0947,0.7583-0.2393,1.3457-0.4512 C137.8213,102.3569,137.5376,102.4521,137.0737,102.6074z M83.0268,169.3752c0.022-0.0378,0.037-0.0646,0.0601-0.1042 C83.0513,169.3295,83.0323,169.3626,83.0268,169.3752z M426.4678,363.9399l0.0986-0.0391c-0.0654,1.1309-0.1172,2.5801-0.168,4.0527 c0.0098,1.4287-0.0176,2.791-0.1113,3.9893c-0.0459,2.4082-0.0918,4.9004-0.1406,7.4824c0.0098,0.2168,0.0293,0.2324,0.0332,0.5996 c-0.0264,0.1289-0.0273,0.1348-0.0459,0.2256c-0.0352,2.7803-0.0693,5.5293-0.1006,8.0088 c0.2539-2.4775,0.1348-3.6172,0.3926-2.1035c-0.0332,3.3105-0.3506-0.0215-0.4561,5.0449c0.0264,1.1328,0.0498,2.1562,0.0752,3.2314 c0.1055,2.4512,0.2256,5.4443,0.4307,5.957l0.0146-6.7236c0.1689,1.625,0.1748,3.6572,0.1416,5.7217 c-0.0215,1.0312-0.0439,2.0713-0.0645,3.0713c-0.0088,0.5684-0.0176,1.125-0.0264,1.6641 c-0.0029,0.7275-0.0049,1.4307-0.0068,2.1006c-0.3418,0.0029-0.6484,0.0049-0.9482,0.0068l0.8359,0.1553 c-1.7285-0.0137-3.2354-0.0254-4.582-0.0352c-1.0566-0.0234-1.9863-0.043-2.8369-0.0605c-1.7002-0.0586-3.082-0.1064-4.5195-0.1553 c-2.4248,0.0459-4.6133,0.0586-6.4902-0.0234l1.6123-0.0391c-0.6807-0.0381-1.4238-0.0586-2.1719-0.0771 c-1.1416-0.0078-2.0439-0.0146-3.5254-0.0244l0.1045-0.0107c-4.3057,0.0146-8.707,0.166-11.1504,0.0508l-0.7695,0.166 c-0.1777-0.0029-0.3662-0.0059-0.8896-0.0127c-2.4092-0.3486-7.21-1.042-12.0859-1.7461c-0.3828-0.0498-0.6738-0.0879-1.1162-0.1455 l0.1475,0.0078c-0.9004-0.125-1.7412-0.2412-2.627-0.3633c-0.9473-0.1084-1.8975-0.2178-2.8906-0.3311 c4.3135,0.751,11.2617,1.7236,15.8379,2.4268c-3.9434-0.4678-13.3682-1.626-15.3945-2.0645l5.1445,0.6885 c-2.6123-0.4824-5.7344-0.9736-9.2656-1.4707c-3.4258-0.3809-6.8613-0.7617-10.0947-1.1211 c-0.1025,0.0068-0.1133,0.0312-0.2666,0.0293l0.0693,0.0127l-0.1123-0.0156c-1.374-0.0176-4.6045-0.3613-8.3721-0.79l0.1396,0.0596 c-0.6396-0.0615-1.1289-0.1172-1.5117-0.1699c-0.2559-0.0361-0.4766-0.0674-0.6699-0.0957 c-0.2178-0.0352-0.4043-0.0654-0.5693-0.0918c-0.5195-0.0605-1.042-0.1221-1.5732-0.1836c0.1934-1.6709,0.3896-3.3643,0.5801-5.0127 c0.1465-1.3545,0.2891-2.6719,0.4219-3.8975c0.251-2.4521,0.4268-4.542,0.4482-5.8311c1.9482-13.8242,3.1885-27.5156,5.1758-43.6523 c-0.0879,5.2021,0.4531-2.6875,0.918-3.583c0.1348-1.3252,0.2969-2.7793,0.5293-4.5566c-0.3428,1.6406-0.8301,4.0703-0.3936-0.5059 c-0.3564,4.9199,1.0947-6.4766,0.7539-1.666l0.0391-0.2344l0.8896-10.0947c0.1475-2.7148-0.5654,3.5762-0.6592,3.208 c0.9443-8.2422,0.1582-3.4854,0.6523-8.9512c0.0303,0.418,0.127,0.1484,0.2607-0.5967c0.0674-0.3721,0.1436-0.8633,0.2256-1.4463 c0.0693-0.5264,0.1494-1.1357,0.2373-1.8027c-0.1543-0.9785-0.332-2.1074-0.5176-3.2842l0.6377,3.2822l-0.2207,2.9531 c0.1611-1.1328,0.3047-2.1318,0.4219-2.9561c-0.1416-0.9648-0.2646-1.8066-0.375-2.5596c-0.1348-0.7969-0.2539-1.499-0.3643-2.1455 c-0.251-1.2871-0.458-2.3496-0.6787-3.4785c-0.4492-2.2568-0.915-4.7881-1.541-9.9854l0.3525,3.6846 c-0.7363-5.7031-3.0322-20.4932-3.5537-26.8945c-0.082-0.5459-0.1553-1.0322-0.2275-1.5059 c-0.1982-0.7891-0.376-1.2373-0.1016,0.8535c-0.5938-3.8643-1.1748-7.9746-1.7432-12.1299 c-0.5674-4.1992-1.1406-8.4395-1.6924-12.5234c0.2656-3.4521,0.5234-6.793,0.7637-9.9092c0.2168-3.0781,0.3906-5.9365,0.4951-8.4678 l-0.2236,1.0879c0.2012-2.373,0.5088-4.2422,0.6318-6.9756c-0.0195,0.1982-0.0215,0.2266-0.0449,0.4697 c0.0176-0.2441,0.042-0.5762,0.0645-0.8838c0.0088-0.2031,0.0176-0.3701,0.0273-0.584l-0.1455-0.1875 c0.1338-1.2744,0.6221-5.9575,0.832-9.4692c-0.0039-0.147-0.0078-0.312-0.0117-0.4688l-0.292,2.3481 c0.4365-8.0083,0.9912-13.8564,1.5547-19.6011c-0.0127-0.1255-0.0381-0.1011-0.0371-0.3979 c0.0957,0.0459,0.2354-1.9546,0.4365-4.2856l-0.3926,2.2588c0.1367-2.0005,0.2734-3.9614,0.3818-6.3584l-0.1797,4.0078 c0.2383-2.5854,0.5527-5.9902,0.915-9.9204c-0.1016-2.7046,0.3281-10.6914,0.5811-15.2358l-0.0762,0.1919 c0.0986-1.4536,0.1943-2.8652,0.2773-4.0801c-0.7217-3.3809-1.3984-6.5508-2.0518-9.6084c-0.6406-3.1333-1.2588-6.1514-1.874-9.1538 c-1.2236-6.0059-2.4346-11.9497-3.7959-18.6318c-1.1758-4.2676-2.8135-11.4048-4.583-19.2808 c-0.8828-3.9385-1.8057-8.0601-2.7109-12.1021c-0.458-2.02-0.9111-4.02-1.3525-5.9678c-0.2236-0.9731-0.4443-1.9331-0.6611-2.876 c-0.1104-0.4707-0.2188-0.9375-0.3262-1.3999l-0.1582-0.6763l-0.0342-0.1108l-0.1006-0.0542 c-0.1836-0.1152-0.3643-0.228-0.542-0.3394c-0.3682-0.229-0.7246-0.4507-1.0752-0.6699c1.9746,1.1812-0.1279-0.4912-2.3496-1.9795 c-3.0039-1.834-8.0244-5.5488-7.7646-4.8994l1.0615,0.6763c-2.4609-1.1191-8.4971-5.144-13.2588-8.2075l-0.4893-0.9453 c-2.625-1.5098-5.5293-3.29-8.5508-5.2002c-1.5049-0.9634-3.0449-1.9497-4.5986-2.9438c-1.3789-0.9004-2.7705-1.8081-4.1533-2.7104 c-4.9121,1.5693-9.7402,3.1113-13.8877,4.4365c-4.3076,1.4043-7.8916,2.6343-10.1064,3.5752 c-3.4219,0.9844-7.6426,2.3711-11.0459,3.3491l0.2744,0.208c-9.3916,3.1577-14.0693,4.7295-25.7275,8.4839l2.4355-0.5864 c-6.5508,2.1689-8.5483,1.9458-14.606,3.916l-1.6797,0.9961c-11.4531,3.751-22.9185,7.9033-34.3574,11.2539 c0.2056-0.0024,0.5801,0.0029,2.4536-0.5933c-5.2087,1.7202-19.7037,6.7466-19.0964,6.0167 c-1.2311,0.7005-12.0455,3.9206-17.928,5.686l1.0581-0.0542c-5.3223,1.3721-5.521,1.3345-12.8364,3.6313 c-1.2759,0.4468-1.4395,0.6143-0.5327,0.3438c-3.9795,1.3462-3.9409,1.022-10.1411,3.1963l2.6519-0.6831 c-1.5879,0.5176-2.7163,0.8853-3.5796,1.1665c-0.8511,0.2681-1.5688,0.4834-1.7178,0.5034 c-0.0884,0.1089-0.1719,0.2114-0.2563,0.3149c-0.1406,0.1846-0.2832,0.3706-0.4375,0.5728 c-0.3071,0.4038-0.6616,0.8691-1.1431,1.5015c-2.2485,3.2036-6.4521,9.8984-6.751,10.8081 c-0.3325,0.3477-1.1367,1.3892-2.1094,2.752c-0.0728,0.1187-0.1089,0.1787-0.187,0.3066c0.0132-0.0366-0.1113,0.1309-0.1938,0.2358 c-0.6714,0.958-1.3872,2.0083-2.1147,3.1592c-0.1919,0.4624,0.5947-0.6201,0.9868-1.1626 c-5.583,8.7998-8.8066,12.749-12.5327,18.8877c0.0005,0.1655-0.2202,0.585-0.5225,1.0923 c4.187-6.3521,7.6091-11.5571,7.8539-11.9604c0.1638,0.2097-3.4128,5.7109-0.2021,1.4877 c-3.1187,4.3721-8.5293,11.8013-12.0249,17.3145l-0.3916,0.7544l0.3916-0.542l-2.3091,3.4224 c-1.1025,1.7456-1.813,2.8784-2.9038,4.5376c-0.2451,0.7568-4.1299,6.4609-5.9629,9.2559 c-0.0821-0.3804-2.3901,3.1883-0.4503-0.1536c-0.0373,0.0848,0.5939-0.8494,1.6685-2.4582l0.8047-1.165l-0.1396,0.167 c1.2065-1.8184,2.7827-4.1934,4.5762-6.8965c-1.5708,2.1196-3.1875,4.3501-5.084,7.5034c-1.0933,1.3276-2.2881,2.8003-2.9453,3.6387 c-2.187,4.0215-6.8525,11.4717-7.3223,12.6221c-5.7437,8.4106-13.3037,19.9565-17.2759,25.0142 c-0.8135,1.1709-1.2393,1.8818-1.5254,2.415c-0.1362,0.2705-0.2476,0.4907-0.3545,0.7031l-0.1572,0.3184l-0.0767,0.1836 l-0.0005,0.021l0.0049-0.0195l2.4922-3.5576c-0.6924,1.0151-1.5332,2.2471-2.4409,3.5781c-0.5381,2.7905-1.1372,5.8955-1.626,8.4316 c-0.5176,2.5889-0.958,4.5908-1.1948,5.0918c-1.1411,7.2051,1.0649-3.9629-0.7837,5.8721l0.3496-1.2959 c-2.9434,19.4873-6.6587,31.3604-9.8247,53.0039l0.3364-2.5762c-0.5244,3.04-1.0532,6.1016-1.5845,9.1797 c-0.5469,3.0391-1.0962,6.0938-1.6475,9.1592c1.0532,9.4854,2.1167,19.0664,3.1714,28.5654 c1.0723,9.5342,2.1865,18.9814,3.4365,28.1533c0.9028,6.9404,0.7529,7.71,1.0605,11.9688l0.4717,1.4697l0.4829,7.2861 c0.4614,5.1504,1.1548,9.5781,1.8589,14.3506c0.3521,2.3857,0.707,4.8584,1.0366,7.5508c0.165,1.3467,0.3237,2.7471,0.4727,4.2207 c0.1431,1.5752,0.293,3.2246,0.4512,4.9678l-0.2334-1.1465l-0.1973-0.8281c0.1196,1.0322,0.2646,2.2842,0.4248,3.6699 c-2.7197-0.1504-5.9058-0.3262-8.3247-0.46c-2.2246-0.1123-3.7451-0.1621-3.4287-0.0498c-0.4692-0.0615-1.52-0.292-3.3711-0.2822 l-0.1455,0.1494l-11.5298-0.8779c-8.9385-0.3555,1.3809,0.7012-11.6763,0.0449c-4.8462-0.3154-13.7969-1.1865-11.9658-1.1963 c1.9639,0.0957,5.0117,0.165,5.1572,0.0146l-4.4326-0.3164c-0.1184-0.0769-0.2965-0.1572-0.4753-0.2373l-0.6497-0.0342v-0.5644 l-0.123-0.7696l0.123,0.1526v-1.8378l-0.0479-2.5609c-0.1582,0.1367-0.249,3.1846-0.2568,5.1504 C0.46,406.6909,0.0605,397.7065,0,392.8511c0.0312-13.0732,0.5439-2.7129,0.6582-11.6582l-0.2705-11.5596l0.1572-0.1377 c0.1064-1.8477-0.0684-2.9102-0.1055-3.3818c0.2344,0.7871,0.0762-9.417,0.1143-14.1152l-0.2031,1.6904 c-0.3853-10.4541,0.1714-17.3652,0.2827-25.0332c0.2476-1.9297,0.4678-3.873,0.6533-5.9609l0.4771-7.2861l0.4707-1.4697 c0.3042-4.2588,0.1538-5.0283,1.0508-11.9697c3.3027-24.377,5.6426-50.7031,8.7891-75.4346l-0.4219,2.5645 c1.3867-9.3193,2.1528-16.9321,2.8003-24.1396c0.3188-3.6045,0.6289-7.1055,0.9443-10.6699 c0.1724-1.7812,0.3462-3.5781,0.5234-5.4116c0.2085-1.8896,0.4214-3.8169,0.6406-5.8047c0.6704-1.1138,1.355-2.2515,2.0562-3.417 c0.6841-1.104,1.3848-2.2344,2.104-3.3955l-0.5806,1.2095c5.019-8.6572-0.5996,1.2441,3.2393-4.96 c0.3799-1.373,6.208-11.1279,9.0205-16.1792l-2.2075,3.9932c0.6191-0.8901,1.0278-1.1519,2.4331-3.6777 c2.793-5.7925,9.832-17.6636,14.8555-26.5234c0.6206-0.6968,3.3882-5.0806,5.8501-8.8027c0.3379-0.5967,0.645-1.1631,0.8809-1.6714 l-0.3911,0.6138c1.7002-2.8174,2.4966-4.0913,2.9092-4.7036c0.2744-0.5981,0.5552-1.21,0.8315-1.813 c0.7402-1.146,1.3838-2.2021,1.9619-3.1958c0.2837-0.5,0.5571-0.9814,0.8223-1.4487c0.2739-0.5015,0.5396-0.9883,0.7993-1.4644 c0.5376-0.52,1.0566-1.0229,1.5703-1.52l-1.646,1.4575l-3.186,5.4482l0.0884-0.1987l-0.6919,1.2354 c-0.9713,1.673-1.5325,2.6506-1.4728,2.5798c-2.1465,3.2134,0.0417-0.4303-0.3358-0.3366c0.7158-1.2256,1.7559-3.0049,2.7432-4.6938 c0.4985-0.8418,0.9834-1.6606,1.4077-2.377c0.2173-0.3555,0.4185-0.6851,0.5981-0.9795c0.2192-0.3481,0.4121-0.6543,0.5713-0.9067 c0.124-0.1016,0.2368-0.1943,0.3389-0.2783l0.1787-0.1333c0.104-0.0752,0.1826-0.1255,0.2368-0.1519 c1.4917-1.3101,2.5151-2.1709,4.0908-3.5049l3.0693-2.7612l-0.4824,0.4634l0.6929-0.4927c0.1694-0.1494,0.376-0.3315,0.5503-0.4849 c1.8838-1.752,2.2139-2.0225,2.0737-1.8281c4.5044-4.0137,9.6025-8.9121,12.856-11.9966c-3.7355,3.7642,1.2081-0.5331,1.4423-0.4032 c-0.3838,0.3143-5.0556,4.4174-10.7529,9.4335c0.4604-0.3696,0.8452-0.647,1.0093-0.6689c1.6108-1.3149,3.0449-2.5664,4.4629-3.8394 l0.0811-0.0977l0.0796-0.0469c2.5049-2.2534,5.0176-4.6206,8.3398-7.5654c0.2197-0.2148,0.2192-0.2144,0.5303-0.519 c0.0952-0.0698,0.2227-0.1631,0.3252-0.2383c0.9834-0.8506,2.0151-1.7427,3.1489-2.7236c-0.3149,0.3027-0.6958,0.688-0.8994,0.9292 c1.6006-1.3877,3.4346-3.1206,5.2046-4.769c0.1572-0.1709,0.354-0.3765,0.4331-0.4766c0.0537-0.0264,0.2773-0.2075,0.3682-0.2681 c0.9893-0.9141,1.9409-1.7764,2.7944-2.501c0.1221,0.0396,0.9922-0.6621,2.1367-1.6323c-0.6025,0.3809-1.3071,0.9292-2.1367,1.6323 l0.2959-0.5264c0.9141-0.8228,1.4253-0.9048,1.8569-1.1196c1.3491-1.1431,3.1919-2.7617,5.2695-4.5942 c1.5103-1.5312,1.8599-1.9355,5.8677-5.4458l-1.9316,1.9409c1.165-0.9863,1.9023-1.6416,2.5879-2.2559 c0.3618-0.333,0.9258-0.8525,1.6094-1.4814c1.0371-0.9941,1.9619-1.8887,3.6943-3.3887c-0.189,0.1763-0.2817,0.2773-0.3345,0.3452 c2.2051-1.9893,4.7061-4.2451,6.9863-6.3022c0.9692-0.9727,1.9258-1.9321,3.5464-3.5576l-0.5562,0.8442 c0.1816-0.1655,0.4028-0.3662,0.5737-0.522l-0.1885,0.084c0.0879-0.0435,0.3306-0.2456,0.4575-0.3286 c4.6189-4.2896,11.9665-11.1157,13.1139-11.7729c-0.0836,0.0137-0.071-0.0494,0.0336-0.1865 c0.0728-0.0957,0.189-0.2256,0.3438-0.3867c0.0781-0.0796,0.165-0.168,0.2603-0.2642c0.1606-0.1514,0.335-0.3154,0.5225-0.4912 c0.5332-0.1523,1.1812-0.3374,1.917-0.5474c0.6353-0.1719,1.3467-0.3643,2.1094-0.5703c1.5308-0.3936,3.269-0.8403,5.0225-1.2905 c3.5122-0.8794,7.085-1.7739,9.1782-2.2983c-1.8994,0.5078-2.2119,0.7144-2.3867,0.8232 c11.4409-3.3442,23.3369-6.0269,35.0049-9.041l0.9897-0.0342c0.3403-0.1353,0.6001-0.2393,0.9136-0.3643 c1.1123-0.2432,3.1802-0.7568,5.3223-1.292c2.6484-0.9399,4.8384-1.855,9.1392-2.9512l-2.3672,0.8188 c11.8433-3.1221,16.6304-4.3193,26.2432-6.7222l-0.1196,0.3232c3.394-1.0107,7.6973-2.1177,11.1094-3.1338 c4.0811-0.6899,12.042-2.8447,20.7861-5.1826l-0.126-0.0312c0.5957-0.1421,0.9561-0.2275,1.168-0.2778 c0.2129-0.0464,0.2773-0.0527,0.2803-0.0425c1.501-0.3975,3.0137-0.7979,4.5293-1.1992c2.7217,0.7549,5.4463,1.5103,8.0977,2.2461 c2.5625,0.73,5.0488,1.4619,7.3828,2.186c0.376,0.0112,2.1504,0.4536,4.2451,1.0215l0.4756-0.1211 c3.3379,0.9307,7.1582,1.9634,10.2686,2.8877c5.5596,1.4653,10.6221,3.0122,15.3887,4.4526 c0.8535,0.1465,1.1172,0.1216-0.0615-0.2495c4.4492,1.3179,9.5957,2.7725,14.8281,4.2388l0.3721,0.0854 c0.1074,0.042,0.0918,0.0356,0.1719,0.0674c2.3213,0.6489,4.6279,1.2944,6.9277,1.9375c1.4014,0.3164,2.6006,0.5903,3.2109,0.7593 c4.5234,1.1489,6.4131,1.8257,8.5498,2.561c4.376,1.2559,8.2236,2.395,10.8701,3.2754c1.9736,0.5142,3.7656,0.9805,5.6309,1.4663 c-0.2373-0.0781-0.2939-0.1152-0.5986-0.207l-2.1201-0.5176c-1.96-0.5869-4.5225-1.3491-2.082-0.8071l0.7637,0.335 c3.0645,0.7227,11.4541,3.0586,9.5361,2.3247c4.2733,1.293,2.2345,0.8102-0.8622,0.0151c2.4786,0.6357,4.6036,1.2101,6.6425,1.7711 c3.3643,0.875,6.7246,1.7495,10.2559,2.6685c0.7646,2.4707,1.5518,5.0156,2.373,7.6719c0.7334,2.4365,1.4971,4.9756,2.3027,7.6519 l-0.1162-0.1704c0.7178,2.5181,1.7744,6.2305,2.6436,9.4487c0.0361-0.2031-0.3799-1.9209-0.6787-3.1255 c1.9688,7.373,4.2266,13.5923,5.5137,17.7422l-1.0586-3.8691c0.6338,2.314,1.1992,4.1963,1.7744,6.1177l-0.8818-2.1167 c0.7109,2.2295,1.2881,4.1499,1.3711,4.084c0.4688,2.0347-0.4551-0.3691,0.0088,1.834c0.7324,2.2642,1.4873,4.5972,2.29,7.0801 c0.1328,0.1381,0.6652,1.4583-0.0245-1.0458c0.3401,1.1584,0.7338,2.4438,1.1973,3.8978l-0.1963-0.9468 c2.9766,8.959,0.9043,4.2642,3.7197,13.6411c-0.1846-1.2373,0.9717,2.0693,1.3975,3.6245c-1.1367-3.7847-0.8252-1.7231,0.082,1.7812 c0.457,1.4126,0.7881,2.4868,1.0615,3.4028c0.1279,0.3853,0.2549,0.7632,0.3916,1.1733l-0.1475-0.3242 c0.6504,2.2642,0.8604,3.3208,1.5098,5.4531l-0.8057-2.5303c1.9492,6.7705,4.6113,15.1147,7.2324,23.4814 c0.166,0.1968,0.1318-0.2896,0.6934,1.3994c0.8115,3.042,1.3955,4.9058,1.9531,6.5967c0.2803,0.8447,0.5469,1.6484,0.8398,2.5322 c0.1426,0.4429,0.292,0.9062,0.4521,1.4048c0.1719,0.5625,0.3564,1.1646,0.5586,1.8237c-0.0039,0.5439-0.0068,1.144-0.0107,1.8032 c-0.0107,0.5825-0.0225,1.2173-0.0361,1.9067c-0.1924-1.8628-0.1982-2.3037-0.3145,0.5137c0.082,2.2891,0.1338,5.0044,0.167,7.876 c0.0068,0.6143,0.0137,1.2285,0.0195,1.832c0.043,5.689,0.0859,11.4771,0.1084,14.5723l-0.1924-3.6958 c0.1826,6.6152-0.0059,8.998-0.1455,11.9111c0.0039,0.6572,0.0068,1.2778,0.0107,1.9648l-0.0371-1.4219 c-0.0928,2.1108-0.1494,4.6274-0.0195,9.25l0.2822-6.6646c-0.084,4.7378,0.0107,8.7485,0.2295,7.6279 c-0.1289,4.3789-0.29,2.2866-0.374,5.4502c-0.0127,0.9019-0.0254,1.7461-0.04,2.7461c-0.0029,0.2769-0.0049,0.4551-0.0078,0.7681 l-0.0078-0.0796c-0.0371,1.752-0.0967,3.3604-0.2441,3.772l0.2598,5.4653c0.0488,4.5293-0.0654,7.2656-0.1973,9.8262 c0.042-0.2676,0.0967-0.7188,0.1699-1.4277c-0.0059,3.1006-0.0117,6.0869-0.0176,9.0234c0.0186-0.501,0.0273-0.7451,0.0576-1.5566 c0.002,3.0352,0.0312,5.7148-0.0859,5.9873c-0.0029,0.2988-0.0049,0.5928-0.0078,0.8896c0.0107,0.6963,0.0049,1.5762-0.0215,2.6826 c-0.0166,1.8994-0.0332,3.7764-0.0498,5.6309l0.0215,3.0732l-0.0342-0.4912l0.0107-2.3057 c-0.0049,0.6953-0.0098,1.3779-0.0146,2.0664l0.0039,0.2393l-0.0059,0.0693c-0.0459,6.3281-0.0566,12.4736,0.0684,18.6494 c-0.2832,2.7305-0.3008,9.1533-0.3252,14.9814c0.0098,3.8047,0.0557,7.2891,0.2168,9.8838 c-0.0449,6.6133-0.0977,14.4346-0.1396,20.6133c0.0039,0.2373,0.0078,0.4463,0.0107,0.6895l0.0625-0.9746 c0.0508,2.4014,0.0273,3.8457-0.0244,4.9404c0.0068,2.1816,0.0137,4.2734,0.0186,5.6602c-0.0361-1.2266-0.0781-2.6504-0.1211-4.1367 c-0.0615,0.6836-0.125,1.3496-0.1777,2.1914c0.0557,2.2051,0.1055,4.1934,0.1377,5.4639l-0.1963,0.9121l0.001,0.166 c0.3193,5.0322,0.1729-5.25,0.2939-2.1045c0.6494,1.377-0.0889,11.8945,0.29,18.5391l0.0391-1.6123 C426.8887,348.3501,426.4219,355.6636,426.4678,363.9399z M426.3418,149.3604c0.0283,0.1953,0.0479,0.354,0.166,0.8281 c-0.0068,0.1157-0.0156,0.2739-0.0244,0.4316c0.0557,0.6621,0.1006,1.4917,0.1416,2.3848l0.0352-2.8389l-0.2969-1.0303 C426.3223,149.0942,426.3193,149.1875,426.3418,149.3604z M60.7417,107.5864c-0.0586,0.0796-0.1357,0.1851-0.2437,0.3325 c-0.0815,0.123-0.1865,0.2817-0.3242,0.4897c-0.2666,0.4219-0.6436,1.0557-1.1895,2.0229l-0.3262,0.8345l0.1099-0.2544 L60.7417,107.5864z M88.9399,161.0264l-2.1631,3.2129l-0.1802,0.2109l0.606-0.6602 C88.4595,161.958,88.8145,161.3208,88.9399,161.0264z M292.7041,5.4673c0.1094,0.0308,0.2021,0.0571,0.3115,0.0874l0.0273-0.0073 L292.7041,5.4673z M106.8779,133.2925c0.0013,0.0009,0.0009,0.0046,0.0019,0.0059 C106.9014,133.2629,106.9073,133.251,106.8779,133.2925z M407.0976,83.6998c-0.127-0.4609-0.2904-1.0362-0.5107-1.7887 C406.7374,82.4608,406.9117,83.0668,407.0976,83.6998z M85.8393,85.774c0.0016,0.0009,0.0082-0.0029,0.0093-0.0016 C85.8866,85.7367,85.874,85.7457,85.8393,85.774z M55.8745,116.5396c-0.0254,0.0381-0.0427,0.0635-0.067,0.0998 C55.8163,116.6288,55.8376,116.5974,55.8745,116.5396z M84.8525,166.5259l-0.6729,1.1343l0.5156-0.7432l0.665-0.998 L84.8525,166.5259z M94.7651,77.5205c0.2324-0.123-3.2207,3.0654,0.293,0.0347C97.5903,75.1953,97.043,75.6445,94.7651,77.5205z M329.7393,15.3008l-5.7354-1.6841l1.5059,0.4556L329.7393,15.3008z M426.4629,284.3394l0.3154,1.0811 C426.874,281.4106,426.5195,281.9214,426.4629,284.3394z M397.2432,406.2515c2.4385,0.1553,6.3896,0.0537,7.9229-0.1035 C403.5547,406.1069,400.4092,406.23,397.2432,406.2515z M301.7256,57.9731l4.4102,2.9546l-2.3037-1.6143L301.7256,57.9731z" opacity=".8" style="fill: rgb(239, 96, 30);"/></g></svg>