<?xml version="1.0" encoding="utf-8" ?><svg xmlns="http://www.w3.org/2000/svg" xmlns:xlink="http://www.w3.org/1999/xlink" width="1024" height="1024" viewBox="0 0 1024 1024"><defs><linearGradient id="gradient_0" gradientUnits="userSpaceOnUse" x1="110.07591" y1="250.70749" x2="274.44012" y2="258.64026"><stop offset="0" stop-color="#EDEAEB"/><stop offset="1" stop-color="#F8F8F8"/></linearGradient></defs><path fill="url(#gradient_0)" transform="scale(2 2)" d="M238.011 84.5566C245.154 84.6945 242.832 93.5585 242.572 97.833C241.234 119.782 250.012 129.211 259.521 145.945C303.362 232.842 258.733 345.921 199.259 413.997C197.207 416.345 195.069 418.481 193.08 420.871C188.087 400.642 188.671 360.162 189.248 339.628C189.711 323.166 188.678 326.424 200.497 315.302L228.797 288.381C232.128 285.172 240.328 278.784 241.941 274.292C243.399 270.234 235.972 265.044 232.681 268.095C228.953 270.866 225.859 274.408 222.479 277.592L202.412 296.571C198.959 299.872 195.008 303.987 191.444 307.045C193.447 290.816 195.279 274.397 199.618 258.6C199.912 257.53 235.974 222.467 238.524 220.007C243.612 215.1 240.253 210.343 234.628 208.64C228.45 210.396 212.191 229.694 205.93 234.645C209.604 217.129 224.995 183.959 224.79 170.06C224.626 158.91 210.238 146.621 199.785 147.275C194.524 150.195 193.817 155.944 199.785 158.8C203.291 160.898 206.932 161.315 209.8 164.957C215.279 171.917 209.59 181.03 207.277 188.143C202.472 202.922 193.249 225.846 191.444 240.987C184.999 232.409 179.45 221.575 173.187 212.608C171.539 210.719 168.318 210.226 166.232 211.356C158.457 215.571 165.671 222.515 168.434 227.488C174.049 237.594 181.276 247.244 186.554 257.496C183.531 274.128 180.755 288.971 179.046 305.895C171.347 294.018 163.1 282.348 155.244 270.57C150.736 263.812 137.487 266.617 146.671 280.051C149.367 283.994 176.28 322.542 176.783 325.116C176.45 356.812 174.754 395.86 181.414 427.189C76.339 360.505 88.2312 185.691 193.543 124.905C208.694 116.159 224.936 112.889 231.08 93.9975C232.546 89.4915 232.845 85.5705 238.011 84.5566Z"/><path fill="#EF601E" transform="scale(2 2)" d="M392.174 151.717C392.244 151.811 392.314 151.905 392.383 151.999C399.251 177.646 401.263 198.347 403.289 224.244C406.078 252.726 399.241 293.657 390.998 320.256C385.54 314.898 380.172 319.96 375.14 323.27C344.052 343.725 285.743 365.569 248.904 366.451C250.719 362.242 253.833 358.126 255.928 353.996C266.031 334.074 274.062 313.741 280.168 292.243C281.199 288.614 281.962 283.465 283.284 280.181C289.221 278.877 295.823 278.094 302.056 276.699C327.529 271.263 353.606 261.922 376.374 249.251C383.867 245.08 398.871 238.811 401.221 230.548C398.821 222.759 394.519 223.656 389.108 227.215C359.803 246.488 321.047 261.957 286.06 267.001C286.357 259.287 289.989 252.134 292.508 245.051L299.873 224.13C304.256 211.636 310.07 193.042 312.444 180.145C342.616 174.841 365.309 165.839 391.912 151.852L392.174 151.717Z"/><path fill="#EF601E" transform="scale(2 2)" d="M325.466 41.596C350.924 39.7206 380.77 115.822 388.684 139.398C377.105 146.915 330.78 166.515 316.557 166.367L316.346 166.131C316.514 164.337 317.813 159.622 318.309 157.609C324.506 132.453 329.495 102.688 332.397 77.1411C333.378 69.853 334.256 62.1984 334.275 54.8524C334.296 46.8991 323.752 47.6042 322.779 52.419C321.097 60.7399 320.697 69.3621 319.44 77.7557C313.314 120.378 305.393 160.305 293.652 201.936C292.253 206.897 290.808 212.82 288.767 217.473C287.737 188.77 284.609 166.22 270.536 140.177C267.325 134.236 263.086 128.882 259.762 123.019C270.354 101.846 304.948 43.8012 325.466 41.596Z"/><path fill="#EF601E" transform="scale(2 2)" d="M386.901 330.449L387.045 330.578C387.245 331.247 386.938 331.841 386.674 332.498C376.463 357.928 365.317 380.77 345.521 400.164C305.93 438.949 260.186 459.097 204.827 438.593C202.344 437.657 198.665 436.257 196.371 435.004C211.014 418.241 223.396 406.172 236.122 386.517C237.519 384.359 238.942 382.226 240.531 380.203C290.979 376.221 346.034 360.497 386.901 330.449Z"/></svg>